<svg width="22" height="22" viewBox="0 0 26 32" fill="none" xmlns="http://www.w3.org/2000/svg">
<path d="M23.8333 6.79111C22.8656 4.34667 20.0778 2.34667 16.835 3.51111C15.2854 4.06199 13.9335 5.24336 13 6.86222C12.0665 5.24336 10.7146 4.06199 9.165 3.51111C5.915 2.36444 3.13445 4.34667 2.16667 6.79111C0.80889 10.2133 1.37222 14.0622 3.84222 18.2311C5.77778 21.4933 8.54389 24.8 12.5594 28.64C12.6863 28.7618 12.8427 28.828 13.0036 28.828C13.1645 28.828 13.3209 28.7618 13.4478 28.64C17.4561 24.8089 20.2294 21.5289 22.165 18.2311C24.6278 14.0622 25.1911 10.2133 23.8333 6.79111V6.79111Z" fill="black"/>
</svg>